<svg version="1.1" xmlns="http://www.w3.org/2000/svg" xmlns:xlink="http://www.w3.org/1999/xlink" width="223.29904" height="49.7612" viewBox="0,0,223.29904,49.7612"><defs><radialGradient cx="133.36951" cy="179.63788" r="24.51848" gradientUnits="userSpaceOnUse" id="color-1"><stop offset="0" stop-color="#00b4b4"/><stop offset="1" stop-color="#00b4b4" stop-opacity="0"/></radialGradient><radialGradient cx="133.36951" cy="179.63788" r="24.51848" gradientUnits="userSpaceOnUse" id="color-2"><stop offset="0" stop-color="#005e8f" stop-opacity="0"/><stop offset="1" stop-color="#005e8f"/></radialGradient><linearGradient x1="133.36951" y1="155.1194" x2="133.36951" y2="204.15636" gradientUnits="userSpaceOnUse" id="color-3"><stop offset="0" stop-color="#005e8f"/><stop offset="1" stop-color="#005e8f" stop-opacity="0"/></linearGradient></defs><g transform="translate(-128.35048,-155.1194)"><g data-paper-data="{&quot;isPaintingLayer&quot;:true}" fill-rule="nonzero" stroke="#000000" stroke-width="0" stroke-linecap="round" stroke-linejoin="miter" stroke-miterlimit="10" stroke-dasharray="" stroke-dashoffset="0" style="mix-blend-mode: normal"><path d="M128.35048,155.1194h10.03804v49.03696h-10.03804z" data-paper-data="{&quot;index&quot;:null}" fill="#ffffff"/><path d="M128.35048,155.1194h10.03804v49.03696h-10.03804z" data-paper-data="{&quot;index&quot;:null}" fill="url(#color-1)"/><path d="M128.35048,155.1194h10.03804v49.03696h-10.03804z" data-paper-data="{&quot;index&quot;:null}" fill="url(#color-2)"/><path d="M132.61922,155.1194h5.76931v49.03696h-5.76931z" data-paper-data="{&quot;index&quot;:null}" fill="url(#color-3)"/><path d="M156.9171,182.86302v21.29334h-9.87358v-49.03696h9.6761v21.42477h-0.78994c0.96518,-3.07169 2.42981,-5.44668 4.39387,-7.12497c1.35814,-1.14626 2.99059,-1.92034 4.73762,-2.24648c0.94887,-0.18573 1.91385,-0.27672 2.88072,-0.27163c1.16817,-0.00725 2.33309,0.12376 3.47048,0.39025c1.12136,0.26491 2.1976,0.69346 3.19414,1.27186c1.84631,1.08152 3.34274,2.67107 4.31097,4.57923c0.03355,0.06398 0.06657,0.12824 0.09908,0.19277c0.59693,1.20748 1.01883,2.49383 1.25299,3.82029c0.20355,1.10358 0.3069,2.284 0.31004,3.54125c0.00003,0.01999 0.00003,0.04 0,0.05999v23.39962h-9.87291v-21.68831c0,-1.82522 -0.37565,-3.33455 -1.12695,-4.528c-0.18657,-0.29681 -0.39879,-0.5767 -0.63424,-0.83645c-0.8685,-0.95158 -2.03036,-1.5853 -3.30063,-1.80028c-0.52306,-0.09667 -1.05404,-0.14406 -1.58595,-0.14154c-0.74049,-0.00494 -1.47819,0.09144 -2.19256,0.28645c-0.52607,0.14614 -1.03306,0.35382 -1.51046,0.61874c-1.08479,0.60231 -1.96652,1.5129 -2.53361,2.61651c-0.32729,0.62962 -0.56289,1.3028 -0.69962,1.99912c-0.11997,0.58594 -0.18737,1.21569 -0.2022,1.88925c-0.0022,0.09704 -0.00332,0.19411 -0.00337,0.29117z" fill="#005e8f"/><path d="M189.00471,190.76175v-23.39962h9.87358v21.68831c0,2.28175 0.59223,4.0699 1.77669,5.36445c0.89642,0.97527 2.09749,1.61715 3.40645,1.8205c0.48377,0.08283 0.97382,0.12342 1.46462,0.12132c0.68763,0.00435 1.37314,-0.07647 2.0409,-0.24062c0.58643,-0.14611 1.15081,-0.3696 1.67829,-0.66457c1.0632,-0.59906 1.92832,-1.49557 2.48912,-2.57944c0.00951,-0.01771 0.01895,-0.03546 0.02831,-0.05325c0.34089,-0.66172 0.58318,-1.36973 0.71917,-2.10156c0.12402,-0.63896 0.18603,-1.32623 0.18603,-2.0618v-21.29334h9.87291v36.79423h-9.31348l-0.13211,-9.18205h0.5601c-0.96563,3.09371 -2.44127,5.47431 -4.4269,7.14182c-1.45416,1.20787 -3.20691,2.00159 -5.07395,2.2977c-0.81902,0.13839 -1.64839,0.20627 -2.47901,0.20288c-1.18735,0.00758 -2.3713,-0.12752 -3.52642,-0.40238c-1.10648,-0.266 -2.16884,-0.69004 -3.15437,-1.25905c-1.91242,-1.11367 -3.45087,-2.77037 -4.42016,-4.75986c-0.00203,-0.00404 -0.00405,-0.00809 -0.00607,-0.01213c-0.59717,-1.20744 -1.01929,-2.49379 -1.25366,-3.82029c-0.20355,-1.10358 -0.3069,-2.284 -0.31004,-3.54125c-0.00003,-0.01999 -0.00003,-0.04 0,-0.05999z" fill="#005e8f"/><path d="M240.8395,204.15636h-9.87358v-36.79423h9.54399v6.41793h0.39497c0.25327,-0.87264 0.60701,-1.71292 1.05415,-2.50395c0.58718,-1.04387 1.38889,-1.95147 2.3523,-2.66302c1.58814,-1.16215 3.51201,-1.77457 5.47971,-1.74434c0.31341,0.00041 0.62674,0.01008 0.93957,0.02898c0.23013,0.01374 0.46001,0.03149 0.68951,0.05325c0.58144,0.05482 1.10246,0.13705 1.56303,0.24669v8.8201c-0.39632,-0.13885 -0.95327,-0.25073 -1.67087,-0.33566c-0.07925,-0.00928 -0.15856,-0.01804 -0.23793,-0.02629c-0.50263,-0.05351 -1.00681,-0.09127 -1.51181,-0.11323c-0.28584,-0.01233 -0.57191,-0.01862 -0.85802,-0.01887c-1.49181,0 -2.84095,0.32375 -4.04743,0.97125c-1.20692,0.64705 -2.14492,1.54663 -2.81399,2.69874c-0.66906,1.15165 -1.0036,2.49542 -1.0036,4.03126z" fill="#005e8f"/><path d="M291.81761,185.56176v2.76479h-30.90271v-6.18742h26.06534l-4.60754,1.64526c0.00307,-0.79075 -0.05281,-1.58063 -0.16715,-2.36308c-0.13211,-0.87801 -0.34217,-1.68952 -0.6302,-2.43453c-0.02429,-0.06294 -0.04923,-0.12563 -0.07482,-0.18805c-0.2941,-0.73205 -0.69871,-1.41467 -1.19974,-2.02405c-0.40466,-0.48643 -0.87621,-0.91306 -1.40059,-1.26714c-0.72209,-0.48062 -1.53167,-0.81453 -2.38263,-0.98271c-0.62935,-0.12718 -1.27011,-0.18929 -1.91217,-0.18535c-0.70999,-0.00485 -1.41807,0.07388 -2.10965,0.23456c-0.78941,0.18387 -1.54027,0.50534 -2.21817,0.94968c-1.19569,0.78994 -2.10067,1.8596 -2.71491,3.20896c-0.40358,0.89918 -0.674,1.85235 -0.80275,2.8295c-0.08067,0.59487 -0.1203,1.19458 -0.11863,1.79489v4.37702c-0.00349,0.78234 0.05102,1.56386 0.16311,2.33814c0.12446,0.83352 0.32061,1.59898 0.58841,2.29635c0.09487,0.24804 0.20103,0.49161 0.31813,0.72995c0.36145,0.74925 0.8384,1.43704 1.4134,2.03821c0.4655,0.48076 0.99809,0.89168 1.58123,1.21996c0.90805,0.50523 1.90237,0.83668 2.93195,0.97732c0.51682,0.0737 1.03829,0.10996 1.56033,0.10852c0.58969,0.00219 1.17854,-0.04447 1.76052,-0.13952c0.47562,-0.078 0.94372,-0.19639 1.39925,-0.35386c0.66656,-0.22794 1.29299,-0.55958 1.85622,-0.98271c0.19684,-0.14925 0.38456,-0.31018 0.56212,-0.48192c0.59529,-0.58025 1.06852,-1.2737 1.39183,-2.03956c0.04921,-0.11429 0.0955,-0.2298 0.13885,-0.34644l8.95153,1.67829c-0.58057,1.99829 -1.6429,3.82347 -3.09371,5.31525c-1.17356,1.20565 -2.5517,2.19355 -4.07035,2.91779c-0.47094,0.2284 -0.95201,0.43531 -1.44171,0.62009c-1.2857,0.47821 -2.61987,0.81429 -3.97868,1.00225c-1.20598,0.16939 -2.42253,0.25228 -3.64033,0.24804c-1.55369,0.00855 -3.10429,-0.13913 -4.62843,-0.4408c-1.78072,-0.35016 -3.49511,-0.97887 -5.08002,-1.86297c-2.72076,-1.53584 -4.81064,-3.71896 -6.26965,-6.54936c-0.86863,-1.71182 -1.47505,-3.54449 -1.79893,-5.43657c-0.26645,-1.53007 -0.39682,-3.08074 -0.38958,-4.63382c-0.00887,-1.68731 0.15099,-3.37127 0.4772,-5.02677c0.33846,-1.71748 0.90849,-3.38107 1.69446,-4.94522c1.37134,-2.76898 3.507,-5.08731 6.15439,-6.68079c1.92532,-1.14672 4.06284,-1.89185 6.2838,-2.19053c1.01476,-0.14375 2.0385,-0.2147 3.06338,-0.21231c2.41341,0 4.66213,0.38396 6.74617,1.15188c2.05906,0.75187 3.93326,1.93591 5.49656,3.4725c1.18926,1.17611 2.17624,2.54045 2.92116,4.038c0.29077,0.57633 0.55151,1.16733 0.78118,1.77063c0.46195,1.22974 0.79688,2.50351 0.99956,3.80142c0.22198,1.37094 0.33296,2.84635 0.33296,4.42623z" fill="#005e8f"/><path d="M308.43803,204.15636h-9.87358v-36.79423h9.14902l0.49405,9.14902h-0.72456c0.21537,-0.86782 0.4922,-1.71921 0.82836,-2.54776c0.3734,-0.90902 0.80679,-1.72456 1.30017,-2.44666c0.12438,-0.18209 0.2543,-0.36034 0.38958,-0.53449c0.62287,-0.81223 1.3553,-1.53422 2.17638,-2.14538c0.53789,-0.39659 1.11545,-0.73631 1.72344,-1.01371c1.47628,-0.67681 3.08192,-1.02498 4.70594,-1.02045c0.97181,-0.00888 1.93994,0.12047 2.87533,0.38419c1.34875,0.38527 2.57117,1.12138 3.5426,2.13324c1.62346,1.67874 2.81916,4.27323 3.58708,7.78347h-1.15188c0.22266,-0.97331 0.53006,-1.92528 0.91868,-2.845c0.44707,-1.06521 1.04077,-2.06272 1.76389,-2.96362c0.91597,-1.1447 2.03794,-2.10802 3.30804,-2.84028c0.35696,-0.20321 0.72485,-0.38661 1.10201,-0.54932c1.70031,-0.73512 3.48283,-1.10268 5.3476,-1.10268c1.17649,-0.00764 2.34877,0.14127 3.48598,0.44282c0.89039,0.24001 1.74788,0.58861 2.55315,1.03798c1.77141,0.99253 3.2217,2.47137 4.17954,4.26177c0.56048,1.03545 0.96305,2.14886 1.19435,3.30333c0.19591,0.93957 0.30623,1.94856 0.33094,3.02698c0.00356,0.15522 0.00536,0.31048 0.00539,0.46574v24.81505h-9.87358v-22.9386c0.00434,-0.58896 -0.04825,-1.17696 -0.15704,-1.7558c-0.2395,-1.22131 -0.75197,-2.18289 -1.53742,-2.88477c-1.022,-0.91302 -2.32905,-1.44328 -3.6983,-1.50035c-0.15485,-0.00917 -0.30994,-0.01367 -0.46507,-0.01348c-0.54601,-0.00328 -1.09059,0.05619 -1.62302,0.17726c-0.55765,0.12744 -1.09249,0.33952 -1.58595,0.62885c-0.91036,0.53742 -1.61246,1.28894 -2.10628,2.25457c-0.31275,0.62134 -0.52587,1.28799 -0.63155,1.97552c-0.07392,0.4677 -0.11021,0.94057 -0.10852,1.41407v22.64271h-9.54466v-23.20214c0.0053,-0.62375 -0.06853,-1.24566 -0.21973,-1.85083c-0.22828,-0.92454 -0.70409,-1.76944 -1.37633,-2.44396c-0.88265,-0.88191 -2.04448,-1.42946 -3.28648,-1.54888c-0.28015,-0.03192 -0.5619,-0.04767 -0.84386,-0.04718c-0.69313,-0.00501 -1.38274,0.09893 -2.0436,0.30802c-0.38177,0.12311 -0.75009,0.28457 -1.09931,0.48192c-0.85261,0.4848 -1.55987,1.18904 -2.04832,2.03956c-0.05436,0.0922 -0.1065,0.18569 -0.15637,0.28039c-0.29163,0.56297 -0.50156,1.16461 -0.62346,1.7868c-0.10694,0.52393 -0.16693,1.08673 -0.17996,1.6884c-0.00186,0.08671 -0.00276,0.17344 -0.0027,0.26017z" fill="#005e8f"/></g></g></svg>